<svg version="1.2" xmlns="http://www.w3.org/2000/svg" viewBox="0 0 512 512" width="512" height="512">
	<title>logo</title>
	<style>
		.s0 { fill: none;stroke: #555358;stroke-miterlimit:100;stroke-width: 50 } 
		.s1 { fill: none;stroke: #c6ca53;stroke-miterlimit:100;stroke-width: 50 } 
	</style>
	<path id="Layer 1" class="s0" d="m394.6 183l0.5 3.1 0.4 3.1 0.4 3.1 0.3 3.1 0.2 3.1 0.3 3.1 0.1 3.1 0.1 3.1v3.2 3.1 3.1l-0.2 3.1-0.1 3.1-0.3 3.1-0.2 3.1-0.4 3.1-0.4 3.1-0.4 3.1-0.5 3.1-0.6 3-0.6 3.1-0.6 3-0.8 3.1-0.7 3-0.8 3-0.9 3-0.9 3-1 2.9-1 3-1.1 2.9-1.1 2.9-1.2 2.9-1.3 2.8-1.2 2.9-1.4 2.8-1.3 2.8-1.5 2.8-1.4 2.7-1.6 2.7-1.5 2.7-1.6 2.7-1.7 2.6-1.7 2.6-1.8 2.6-1.8 2.5-1.8 2.6-1.9 2.4-1.9 2.5-2 2.4-2 2.4-2.1 2.3-2 2.3-2.2 2.3-2.2 2.2-2.2 2.2-2.2 2.2-2.3 2.1-2.3 2.1-2.4 2-2.4 2-2.4 1.9-2.5 2-2.5 1.8-2.5 1.8-2.6 1.8-2.5 1.8-2.7 1.6-2.6 1.7-2.7 1.6-2.7 1.5-2.7 1.5-2.8 1.5-2.8 1.4-2.8 1.3-2.8 1.3-2.9 1.3-2.8 1.2-2.9 1.1-2.9 1.2-3 1-2.9 1-3 1-3 0.9-3 0.8-3 0.8-3 0.7-3 0.7-3.1 0.7-3.1 0.5-3 0.6-3.1 0.5-3.1 0.4-3.1 0.3-3.1 0.4-3.1 0.2-3.1 0.2-3.1 0.2-3.1 0.1h-3.1-3.2l-3.1-0.1-3.1-0.1-3.1-0.2-3.1-0.2-3.1-0.3-3.1-0.3-3.1-0.4-3.1-0.5-3.1-0.5-3-0.5-3.1-0.6-3-0.7-3.1-0.7-3-0.8-3-0.8-3-0.9-2.9-0.9-3-0.9-2.9-1.1-3-1.1-2.9-1.1-2.9-1.2-2.8-1.2-2.9-1.3-2.8-1.3-2.8-1.4-2.7-1.4-2.8-1.5-2.7-1.5-2.7-1.6-2.7-1.6-2.6-1.6-2.6-1.7-2.6-1.8-2.5-1.8-2.5-1.8-2.5-1.9-2.5-2-2.4-1.9-2.4-2-2.3-2.1-2.3-2.1-2.3-2.1-2.2-2.2-2.2-2.2-2.2-2.3-2.1-2.2-2.1-2.4-2-2.3-2-2.4-1.9-2.4-1.9-2.5-1.9-2.5-1.8-2.5-1.8-2.6-1.7-2.6-1.7-2.6-1.7-2.7-1.6-2.6-1.5-2.7-1.5-2.8-1.5-2.7-1.4-2.8-1.3-2.8-1.3-2.8-1.3-2.9-1.2-2.9-1.1-2.9-1.1-2.9-1.1-2.9-1-3-0.9-2.9-0.9-3-0.9-3-0.8-3-0.7-3-0.7-3.1-0.7-3-0.5-3.1-0.6-3.1-0.4-3-0.5-3.1-0.3-3.1-0.3-3.1-0.3-3.1-0.2-3.1-0.2-3.1v-3.2l-0.1-3.1v-3.1l0.1-3.1 0.1-3.1 0.2-3.1 0.2-3.1 0.3-3.1 0.3-3.1 0.4-3.1 0.5-3.1 0.5-3.1 0.5-3.1 0.6-3 0.7-3.1 0.7-3 0.8-3 0.8-3 0.9-3 0.9-3 1-2.9 1-3 1.1-2.9 1.1-2.9 1.2-2.9 1.2-2.9 1.3-2.8 1.3-2.8 1.4-2.8 1.4-2.8 1.5-2.7 1.5-2.7 1.6-2.7 1.6-2.7 1.7-2.6 1.7-2.6 1.7-2.6 1.8-2.6 1.9-2.5 1.8-2.5 2-2.4 1.9-2.4 2.1-2.4 2-2.3 2.1-2.3 2.1-2.3 2.2-2.3 2.2-2.1 2.3-2.2 2.3-2.1 2.3-2.1 2.3-2 2.4-2 2.5-2 2.4-1.9 2.5-1.8 2.6-1.9 2.5-1.7 2.6-1.8 2.6-1.7 2.7-1.6 2.6-1.6 2.8-1.5 2.7-1.5 2.7-1.5 2.8-1.4 2.8-1.3 2.9-1.4 2.8-1.2 2.9-1.2 2.9-1.2 2.9-1.1 2.9-1 3-1 2.9-1 3-0.9 3-0.8 3-0.8 3.1-0.8 3-0.7 3-0.6 3.1-0.6 3.1-0.5 3.1-0.5 3-0.4 3.1-0.4 3.1-0.3 3.1-0.2 3.2-0.2 3.1-0.2 3.1-0.1h3.1 3.1l3.1 0.1 3.1 0.1 3.1 0.1 3.2 0.3 3.1 0.3 3.1 0.3 3 0.4 3.1 0.4 3.1 0.5 3.1 0.6 3 0.6 3.1 0.7 3 0.7 3 0.7 3 0.9 3 0.8 3 1 3 0.9 2.9 1.1 2.9 1 2.9 1.2 2.9 1.1 2.9 1.3 2.8 1.2 2.8 1.4 2.8 1.4 2.8 1.4 2.7 1.5 2.8 1.5 2.7 1.5 2.6 1.7 2.7 1.6 2.6 1.7 2.5 1.8 2.6 1.8 2.5 1.8 2.5 1.9 2.4 1.9 2.4 2 2.4 2 2.4 2.1 2.3 2.1 2.2 2.1 2.3 2.2 2.2 2.2 2.1 2.2 2.1 2.3 2.1 2.3 2 2.4 2 2.4 2 2.4 1.9 2.5 1.9 2.5 1.8 2.5 1.8 2.6 1.7 2.6 1.7 2.6 1.6 2.6 1.6 2.7 1.6 2.7 1.5 2.7 1.4 2.8 1.4 2.8 1.4 2.8 1.3 2.8 1.2 2.9 1.2 2.8 1.2 2.9 1.1 3 1 2.9 1 2.9 1 3 0.9 3 0.8 3 0.8 3 0.8 3 0.7 3.1 0.6 3 0.6 3.1z"/>
	<path id="Shape 1" class="s0" d="m332.1 350.8l3.6-3.6 116.8 116.8-3.6 3.6z"/>
	<path id="Shape 2" class="s1" d="m399.6 122.9l1.5 2.7 1.5 2.7 1.4 2.7 1.4 2.8 1.3 2.7 1.3 2.8 1.2 2.8 1.2 2.8 1.1 2.9 1.1 2.9 1.1 2.8 0.9 3 1 2.9 0.9 2.9 0.8 3 0.8 2.9 0.7 3 0.7 3 0.6 3 0.6 3 0.5 3 0.4 3.1 0.5 3 0.3 3.1 0.3 3 0.3 3.1 0.2 3 0.1 3.1 0.1 3.1 0.1 3-0.1 3.1v3.1l-0.2 3-0.1 3.1-0.3 3.1-0.2 3-0.4 3.1-0.4 3-0.4 3-0.5 3.1-0.5 3-0.6 3-0.7 3-0.7 3-0.8 2.9-0.8 3-0.8 2.9-0.9 3-1 2.9-1 2.9-1.1 2.9-1.1 2.8-1.2 2.9-1.2 2.8-1.2 2.8-1.3 2.7-1.4 2.8-1.4 2.7-1.5 2.7-1.5 2.7-1.5 2.6-1.6 2.7-1.6 2.6-1.7 2.5-1.7 2.6-1.8 2.5-1.8 2.4-1.9 2.5-1.9 2.4-1.9 2.4-2 2.3-2 2.3-2.1 2.3-2.1 2.2-2.2 2.2-2.1 2.2-2.2 2.1-2.3 2.1-2.3 2-2.3 2-2.4 2-2.4 1.9-2.4 1.9-2.5 1.8-2.4 1.8-2.6 1.7-2.5 1.7-2.6 1.7-2.6 1.6-2.6 1.6-2.7 1.5-2.7 1.5-2.7 1.4-2.8 1.4-2.7 1.3-2.8 1.3-2.8 1.2-2.8 1.2-2.9 1.1-2.9 1.1-2.8 1.1-3 1-2.9 0.9-2.9 0.9-3 0.8-2.9 0.8-3 0.7-3 0.7-3 0.6-3 0.6-3 0.5-3.1 0.5-3 0.4-3.1 0.3-3 0.3-3.1 0.3-3 0.2-3.1 0.1-3.1 0.1-3 0.1-3.1-0.1h-3.1l-3-0.1-3.1-0.2-3.1-0.2-3-0.3-3.1-0.4-3-0.4-3-0.4-3.1-0.5-3-0.5-3-0.6-3-0.7-3-0.7-2.9-0.8-3-0.8-3-0.8-2.9-0.9-2.9-1-2.9-1-2.9-1.1-2.8-1.1-2.9-1.1-2.8-1.3-2.8-1.2-2.7-1.3-2.8-1.4-2.7-1.4-2.7-1.4-2.7-1.5-2.7-1.6-2.6-1.6-2.6-1.6-2.5-1.7-2.6-1.7-2.5-1.8-2.4-1.8-2.5-1.9-2.4-1.9-2.4-1.9-2.3-2-2.3-2-2.3-2.1-2.2-2.1-2.2-2.1-2.2-2.2-2.1-2.2-2.1-2.3-2-2.3-2-2.3-2-2.4-1.9-2.4-1.9-2.4-1.8-2.4-1.8-2.5-1.7-2.6-1.7-2.5-1.7-2.6-1.6-2.6-1.6-2.6-1.5-2.7-1.5-2.7-1.4-2.7-1.4-2.7-1.3-2.8-1.3-2.8-1.2-2.8-1.2-2.8-1.1-2.9-1.1-2.9-1.1-2.8-1-2.9-0.9-3-0.9-2.9-0.8-3-0.8-2.9-0.7-3-0.7-3-0.6-3-0.6-3-0.5-3-0.5-3.1-0.4-3-0.3-3.1-0.3-3-0.3-3.1-0.2-3-0.1-3.1-0.1-3.1-0.1-3 0.1-3.1v-3.1l0.1-3 0.2-3.1 0.2-3 0.3-3.1 0.4-3 0.4-3.1 0.4-3 0.5-3.1 0.5-3 0.6-3 0.7-3 0.7-3 0.8-2.9 0.8-3 0.8-2.9 0.9-3 1-2.9 1-2.9 1.1-2.9 1.1-2.8 1.1-2.9 1.3-2.8 1.2-2.8 1.3-2.7 1.4-2.8 1.4-2.7 1.4-2.7 1.5-2.7 1.6-2.6 1.6-2.7 1.6-2.6 1.7-2.5 1.7-2.6 1.8-2.5 1.8-2.4 1.9-2.5 1.9-2.4 1.9-2.4 2-2.3 2-2.3 2.1-2.3 2.1-2.2 2.1-2.2 2.2-2.2 2.2-2.1 2.3-2.1 2.3-2 2.3-2 2.4-2 2.4-1.9 2.4-1.9 2.4-1.8 2.5-1.8 2.6-1.7 2.5-1.7 2.6-1.7 2.6-1.6 2.6-1.6 2.7-1.5 2.7-1.5 2.7-1.4 2.7-1.4 2.8-1.3 2.8-1.3 2.8-1.2 2.8-1.2 2.9-1.1 2.8-1.1 2.9-1.1 2.9-0.9 3-1 2.9-0.9 3-0.8 2.9-0.8 3-0.7 3-0.7 3-0.6 3-0.6 3-0.5 3.1-0.5 3-0.4 3.1-0.3 3-0.3 3.1-0.3 3-0.2 3.1-0.1 3.1-0.1 3-0.1 3.1 0.1h3.1l3 0.2 3.1 0.1 3 0.3 3.1 0.2 3 0.4 3.1 0.4 3 0.4 3.1 0.5 3 0.5 3 0.6 3 0.7 3 0.7 2.9 0.8 3 0.8 2.9 0.8 3 0.9 2.9 1 2.9 1 2.9 1.1 2.8 1.1 2.8 1.2 2.9 1.2 2.8 1.2 2.7 1.3 2.8 1.4 2.7 1.4 2.7 1.5 2.7 1.5 2.6 1.5 2.7 1.6 2.6 1.6 2.5 1.7 2.6 1.7 2.5 1.8 2.4 1.8 2.5 1.9 2.4 1.9 2.4 1.9 2.3 2 2.3 2 2.3 2.1 2.2 2.1 2.2 2.1 2.2 2.2 2.1 2.2 2.1 2.3 2 2.3 2 2.3 2 2.4 1.9 2.4 1.9 2.4 1.8 2.5 1.8 2.4 1.7 2.6 1.7 2.5 1.7 2.6 1.6 2.6z"/>
	<path id="Shape 3" class="s1" d="m366 349.8l3.5-3.5 100.2 100.2-3.5 3.5z"/>
</svg>