<svg version="1.2" xmlns="http://www.w3.org/2000/svg" viewBox="0 0 512 512" width="256" height="256">
	<title>logo</title>
	<style>
		.s0 { fill: #ffffff } 
		.s1 { fill: none;stroke: #555358;stroke-miterlimit:100;stroke-width: 50 } 
		.s2 { fill: none;stroke: #c6ca53;stroke-miterlimit:100;stroke-width: 50 } 
	</style>
	<path id="Shape 3" class="s0" d="m396.2 16.1c55.3 0 100 44.8 100 100v280.5c0 55.2-44.7 100-100 100h-280.4c-55.3 0-100-44.8-100-100v-280.5c0-55.2 44.7-100 100-100z"/>
	<path id="Layer 1" class="s1" d="m382.9 198l0.4 2.6 0.4 2.6 0.3 2.7 0.3 2.6 0.2 2.7 0.2 2.7 0.1 2.6 0.1 2.7v2.7 2.6 2.7l-0.1 2.7-0.2 2.6-0.2 2.7-0.2 2.6-0.3 2.7-0.4 2.6-0.3 2.7-0.5 2.6-0.4 2.6-0.6 2.7-0.5 2.6-0.6 2.6-0.7 2.5-0.7 2.6-0.7 2.6-0.8 2.5-0.9 2.6-0.8 2.5-1 2.5-0.9 2.5-1 2.4-1.1 2.5-1.1 2.4-1.1 2.4-1.2 2.4-1.2 2.4-1.3 2.3-1.3 2.4-1.3 2.3-1.4 2.3-1.4 2.2-1.5 2.3-1.5 2.2-1.5 2.1-1.6 2.2-1.6 2.1-1.7 2.1-1.7 2.1-1.7 2-1.8 2-1.7 2-1.9 1.9-1.8 1.9-1.9 1.9-2 1.9-1.9 1.8-2 1.8-2 1.7-2.1 1.7-2.1 1.7-2.1 1.6-2.1 1.6-2.2 1.6-2.2 1.5-2.2 1.5-2.2 1.4-2.3 1.4-2.3 1.4-2.3 1.3-2.3 1.3-2.4 1.2-2.4 1.2-2.4 1.2-2.4 1.1-2.4 1.1-2.5 1-2.5 1-2.5 1-2.5 0.9-2.5 0.8-2.5 0.8-2.6 0.8-2.6 0.7-2.5 0.7-2.6 0.6-2.6 0.6-2.7 0.6-2.6 0.5-2.6 0.4-2.6 0.4-2.7 0.4-2.6 0.3-2.7 0.3-2.6 0.2-2.7 0.2-2.7 0.1-2.6 0.1h-2.7-2.7l-2.6-0.1-2.7-0.1-2.7-0.1-2.6-0.2-2.7-0.2-2.6-0.3-2.7-0.4-2.6-0.4-2.7-0.4-2.6-0.5-2.6-0.5-2.6-0.5-2.6-0.7-2.6-0.6-2.6-0.7-2.5-0.8-2.6-0.7-2.5-0.9-2.5-0.9-2.5-0.9-2.5-0.9-2.5-1.1-2.4-1-2.5-1.1-2.4-1.1-2.4-1.2-2.3-1.2-2.4-1.3-2.3-1.3-2.3-1.3-2.3-1.4-2.3-1.5-2.2-1.4-2.2-1.5-2.2-1.6-2.1-1.5-2.2-1.6-2.1-1.7-2-1.7-2.1-1.7-2-1.8-1.9-1.8-2-1.8-1.9-1.8-1.9-1.9-1.8-2-1.8-1.9-1.8-2-1.7-2-1.8-2.1-1.6-2.1-1.7-2.1-1.6-2.1-1.5-2.2-1.5-2.2-1.5-2.2-1.5-2.2-1.4-2.3-1.3-2.3-1.4-2.3-1.2-2.3-1.3-2.4-1.2-2.4-1.1-2.4-1.2-2.4-1-2.5-1.1-2.4-1-2.5-0.9-2.5-0.9-2.5-0.9-2.5-0.8-2.6-0.7-2.5-0.8-2.6-0.7-2.6-0.6-2.6-0.6-2.6-0.5-2.6-0.5-2.6-0.5-2.6-0.4-2.7-0.3-2.6-0.4-2.6-0.2-2.7-0.2-2.7-0.2-2.6-0.1-2.7-0.1-2.6-0.1-2.7v-2.7l0.1-2.7 0.1-2.6 0.2-2.7 0.2-2.6 0.2-2.7 0.3-2.6 0.3-2.7 0.4-2.6 0.4-2.7 0.5-2.6 0.5-2.6 0.6-2.6 0.6-2.6 0.7-2.6 0.7-2.6 0.7-2.5 0.8-2.6 0.8-2.5 0.9-2.5 0.9-2.5 1-2.5 1-2.5 1.1-2.4 1.1-2.5 1.1-2.4 1.2-2.4 1.2-2.4 1.3-2.3 1.3-2.3 1.3-2.3 1.4-2.3 1.4-2.3 1.5-2.2 1.5-2.2 1.5-2.2 1.6-2.1 1.6-2.2 1.7-2.1 1.6-2 1.8-2.1 1.7-2 1.8-1.9 1.8-2 1.9-1.9 1.9-1.9 1.9-1.8 2-1.8 2-1.8 2-1.8 2-1.7 2.1-1.6 2.1-1.7 2.2-1.6 2.1-1.5 2.2-1.5 2.2-1.5 2.3-1.5 2.3-1.4 2.2-1.3 2.4-1.4 2.3-1.2 2.4-1.3 2.3-1.2 2.4-1.2 2.5-1.1 2.4-1 2.5-1.1 2.4-1 2.5-0.9 2.5-0.9 2.6-0.9 2.5-0.8 2.6-0.8 2.5-0.7 2.6-0.7 2.6-0.6 2.6-0.6 2.6-0.5 2.6-0.5 2.7-0.5 2.6-0.4 2.6-0.3 2.7-0.4 2.7-0.2 2.6-0.3 2.7-0.1 2.6-0.2h2.7l2.7-0.1h2.6l2.7 0.1 2.7 0.1 2.6 0.1 2.7 0.2 2.7 0.3 2.6 0.3 2.6 0.3 2.7 0.4 2.6 0.4 2.6 0.5 2.7 0.5 2.6 0.6 2.6 0.6 2.6 0.6 2.5 0.8 2.6 0.7 2.5 0.8 2.6 0.8 2.5 0.9 2.5 0.9 2.5 1 2.4 1 2.5 1.1 2.4 1 2.4 1.2 2.4 1.2 2.4 1.2 2.4 1.2 2.3 1.3 2.3 1.4 2.3 1.4 2.2 1.4 2.3 1.5 2.2 1.5 2.1 1.5 2.2 1.6 2.1 1.6 2.1 1.6 2.1 1.7 2 1.7 2 1.8 2 1.8 1.9 1.8 2 1.9 1.8 1.9 1.9 1.9 1.8 2 1.8 2 1.7 2 1.7 2 1.7 2.1 1.6 2.1 1.6 2.2 1.6 2.1 1.5 2.2 1.5 2.2 1.4 2.3 1.4 2.2 1.4 2.3 1.3 2.3 1.3 2.4 1.2 2.3 1.2 2.4 1.2 2.4 1.1 2.5 1.1 2.4 1 2.5 1 2.4 1 2.5 0.9 2.5 0.8 2.6 0.8 2.5 0.8 2.6 0.7 2.5 0.7 2.6 0.7 2.6 0.5 2.6 0.6 2.6 0.5 2.6z"/>
	<path id="Shape 1" class="s1" d="m329.4 341.6l3.1-3.1 100 100-3 3.1z"/>
	<path id="Shape 2" class="s2" d="m387.2 146.5l1.3 2.3 1.2 2.3 1.3 2.3 1.1 2.4 1.2 2.3 1.1 2.4 1 2.4 1.1 2.4 0.9 2.5 1 2.4 0.8 2.5 0.9 2.5 0.8 2.5 0.7 2.5 0.7 2.5 0.7 2.6 0.6 2.5 0.6 2.6 0.6 2.6 0.4 2.5 0.5 2.6 0.4 2.6 0.3 2.6 0.3 2.6 0.3 2.7 0.2 2.6 0.2 2.6 0.1 2.6 0.1 2.6v2.7 2.6 2.6l-0.2 2.6-0.1 2.7-0.2 2.6-0.2 2.6-0.3 2.6-0.4 2.6-0.3 2.6-0.5 2.6-0.4 2.6-0.5 2.6-0.6 2.5-0.6 2.6-0.7 2.5-0.6 2.6-0.8 2.5-0.8 2.5-0.8 2.5-0.9 2.5-0.9 2.4-0.9 2.5-1 2.4-1.1 2.4-1 2.4-1.2 2.4-1.1 2.3-1.2 2.4-1.3 2.3-1.2 2.3-1.4 2.3-1.3 2.2-1.4 2.2-1.5 2.2-1.5 2.2-1.5 2.1-1.5 2.1-1.6 2.1-1.6 2.1-1.7 2-1.7 2-1.7 2-1.8 2-1.8 1.9-1.8 1.8-1.9 1.9-1.9 1.8-1.9 1.8-2 1.7-2 1.7-2 1.7-2.1 1.7-2 1.6-2.1 1.5-2.2 1.6-2.1 1.5-2.2 1.4-2.2 1.5-2.3 1.3-2.2 1.4-2.3 1.3-2.3 1.2-2.3 1.3-2.4 1.1-2.3 1.2-2.4 1.1-2.4 1-2.5 1.1-2.4 0.9-2.4 1-2.5 0.8-2.5 0.9-2.5 0.8-2.5 0.7-2.6 0.7-2.5 0.7-2.5 0.6-2.6 0.6-2.6 0.6-2.6 0.4-2.5 0.5-2.6 0.4-2.6 0.3-2.7 0.3-2.6 0.3-2.6 0.2-2.6 0.2-2.6 0.1-2.7 0.1h-2.6-2.6-2.6l-2.7-0.2-2.6-0.1-2.6-0.2-2.6-0.2-2.6-0.3-2.6-0.4-2.6-0.3-2.6-0.5-2.6-0.4-2.6-0.5-2.5-0.6-2.6-0.6-2.6-0.7-2.5-0.6-2.5-0.8-2.5-0.8-2.5-0.8-2.5-0.9-2.4-0.9-2.5-0.9-2.4-1-2.4-1.1-2.4-1-2.4-1.2-2.4-1.1-2.3-1.2-2.3-1.3-2.3-1.2-2.3-1.4-2.2-1.3-2.2-1.4-2.2-1.5-2.2-1.5-2.1-1.5-2.2-1.5-2.1-1.6-2-1.6-2-1.7-2.1-1.7-1.9-1.7-2-1.8-1.9-1.8-1.9-1.8-1.8-1.9-1.8-1.9-1.8-1.9-1.8-2-1.7-2-1.6-2-1.7-2.1-1.6-2-1.6-2.1-1.5-2.2-1.5-2.1-1.5-2.2-1.4-2.2-1.4-2.3-1.3-2.2-1.3-2.3-1.3-2.3-1.2-2.3-1.2-2.4-1.1-2.3-1.1-2.4-1.1-2.4-1-2.5-0.9-2.4-1-2.4-0.9-2.5-0.8-2.5-0.8-2.5-0.8-2.5-0.7-2.6-0.6-2.5-0.7-2.5-0.5-2.6-0.6-2.6-0.5-2.6-0.4-2.5-0.4-2.6-0.4-2.6-0.3-2.7-0.2-2.6-0.2-2.6-0.2-2.6-0.1-2.6-0.1-2.7v-2.6-2.6-2.6l0.1-2.7 0.2-2.6 0.2-2.6 0.2-2.6 0.3-2.6 0.3-2.6 0.4-2.6 0.4-2.6 0.5-2.6 0.5-2.6 0.6-2.5 0.6-2.6 0.6-2.6 0.7-2.5 0.8-2.5 0.7-2.5 0.9-2.5 0.8-2.5 0.9-2.5 1-2.4 1-2.4 1-2.4 1.1-2.4 1.1-2.4 1.2-2.4 1.2-2.3 1.2-2.3 1.3-2.3 1.4-2.3 1.3-2.2 1.4-2.2 1.5-2.2 1.4-2.2 1.6-2.1 1.5-2.2 1.6-2.1 1.6-2 1.7-2 1.7-2.1 1.7-1.9 1.8-2 1.8-1.9 1.8-1.9 1.9-1.8 1.9-1.8 1.9-1.8 2-1.8 2-1.7 2-1.6 2-1.7 2.1-1.6 2.1-1.6 2.2-1.5 2.1-1.5 2.2-1.5 2.2-1.4 2.2-1.4 2.3-1.3 2.3-1.3 2.3-1.3 2.3-1.2 2.4-1.2 2.3-1.1 2.4-1.1 2.4-1.1 2.4-1 2.5-0.9 2.4-1 2.5-0.9 2.5-0.8 2.5-0.8 2.5-0.8 2.5-0.7 2.6-0.6 2.5-0.7 2.6-0.5 2.6-0.6 2.5-0.5 2.6-0.4 2.6-0.4 2.6-0.4 2.6-0.3 2.7-0.2 2.6-0.2 2.6-0.2 2.6-0.1 2.6-0.1h2.7 2.6 2.6l2.6 0.1 2.7 0.2 2.6 0.2 2.6 0.2 2.6 0.3 2.6 0.3 2.6 0.4 2.6 0.4 2.6 0.5 2.6 0.5 2.5 0.6 2.6 0.6 2.5 0.6 2.6 0.7 2.5 0.8 2.5 0.7 2.5 0.9 2.5 0.8 2.4 0.9 2.5 1 2.4 1 2.4 1 2.4 1.1 2.4 1.1 2.3 1.2 2.4 1.2 2.3 1.2 2.3 1.3 2.3 1.4 2.2 1.3 2.2 1.4 2.2 1.5 2.2 1.4 2.1 1.6 2.1 1.5 2.1 1.6 2.1 1.6 2 1.7 2 1.7 2 1.7 2 1.8 1.9 1.8 1.8 1.8 1.9 1.9 1.8 1.9 1.8 1.9 1.7 2 1.7 2 1.7 2 1.7 2 1.6 2.1 1.5 2.1 1.6 2.2 1.5 2.1 1.4 2.2 1.5 2.2 1.3 2.2z"/>
</svg>